<svg width="2000" height="2000" viewBox="0 0 2000 2000" fill="none" xmlns="http://www.w3.org/2000/svg">
<rect width="2000" height="2000" fill="white"/>
<circle cx="1000.02" cy="1000.02" r="871.022" fill="#0466C8"/>
<path d="M1446.54 706.38L1021.26 466.128C1009.03 459.217 994.131 459.193 981.918 466.138C862.324 534.139 641.642 660.808 579.054 701.311C518.144 740.728 531.136 813.94 548.262 853.447C551.006 859.778 555.793 864.892 561.593 868.63C650.547 925.975 839.278 1044.02 949.95 1100.49C1093.05 1173.51 1148.9 971.803 1120.31 939.844C1089.66 905.581 967.997 837.917 882.914 788.664C872.763 782.788 870.659 769.086 878.505 760.367C880.044 758.658 881.887 757.249 883.942 756.214L994.201 700.675C1006.63 694.416 1021.41 695.064 1033.24 702.384L1245.43 833.677C1257.21 840.968 1264.39 853.837 1264.39 867.692V1119.05C1264.39 1132.4 1257.73 1144.86 1246.63 1152.29L1035.33 1293.72C1022.44 1302.36 1005.71 1302.75 992.426 1294.74L552.761 1029.64C547.63 1026.55 541.088 1030.24 541.088 1036.23V1241.33C541.088 1255.42 548.501 1268.48 560.602 1275.69L981.601 1526.72C993.933 1534.07 1009.26 1534.25 1021.76 1527.19L1446.54 1287.22C1459.1 1280.13 1466.87 1266.82 1466.87 1252.39V741.207C1466.87 726.782 1459.1 713.475 1446.54 706.38Z" stroke="white" stroke-width="25"/>
</svg>
